<svg xmlns="http://www.w3.org/2000/svg" fill="none" viewBox="0 0 150 48" height="48" width="150">
<g clip-path="url(#clip0_7908_16916)">
<mask height="24" width="150" y="12" x="0" maskUnits="userSpaceOnUse" style="mask-type:luminance" id="mask0_7908_16916">
<path fill="white" d="M150 12.5H0V35.5H150V12.5Z"></path>
</mask>
<g mask="url(#mask0_7908_16916)">
<path fill="#FF3621" d="M21.7619 29.5309V25.4786L21.3278 25.2047L10.9081 30.9547L1.03111 25.4786V23.1238L10.9081 28.5453L21.8162 22.5762V18.5786L21.382 18.3048L10.9081 24.1095L1.411 18.8524L10.9081 13.5952L18.5601 17.8119L19.157 17.4833V17.0452L10.9081 12.5L0 18.4691V19.0714L10.9081 25.0953L20.785 19.6191V22.0286L10.9081 27.5047L0.434153 21.7L0 21.9738V26.0262L10.9081 31.9953L20.785 26.5738V28.9286L10.9081 34.4047L0.434153 28.6547L0 28.9286V29.5309L10.9081 35.5L21.7619 29.5309Z"></path>
<path fill="#141413" d="M42.4922 13.707V32.1618H39.5616V30.7927C39.5616 30.6832 39.5073 30.5737 39.3988 30.5737C39.2903 30.519 39.1817 30.5737 39.1275 30.6285C38.0964 31.7785 36.5768 32.4903 34.8945 32.4903C33.1578 32.4903 31.5297 31.7785 30.3358 30.5737C29.142 29.3141 28.4907 27.6165 28.4907 25.7546C28.4907 21.9761 31.3127 19.0189 34.8945 19.0189C36.5768 19.0189 38.1506 19.6761 39.1275 20.7713C39.1817 20.8261 39.2903 20.8808 39.3988 20.8261C39.5073 20.7713 39.5616 20.7166 39.5616 20.607V13.707H42.4922ZM31.4213 25.7546C31.4213 28.1094 33.2121 29.9165 35.5457 29.9165C37.8792 29.9165 39.6701 28.1094 39.6701 25.7546C39.6701 23.3999 37.8792 21.5927 35.5457 21.5927C33.2664 21.5927 31.4213 23.3999 31.4213 25.7546Z" clip-rule="evenodd" fill-rule="evenodd"></path>
<path fill="#141413" d="M58.0139 19.2894V32.1585H55.1376V30.7894C55.1376 30.6799 55.0833 30.5704 54.9748 30.5704C54.8662 30.5156 54.7577 30.5704 54.7034 30.6252C53.6723 31.8299 52.1528 32.487 50.4704 32.487C46.8887 32.487 44.0667 29.5299 44.0667 25.7513C44.0667 21.9728 46.8887 19.0156 50.4704 19.0156C52.207 19.0156 53.7265 19.618 54.7034 20.768C54.7577 20.8228 54.8662 20.8775 54.9748 20.8228C55.0833 20.768 55.1376 20.7132 55.1376 20.6037V19.2894H58.0139ZM46.9972 25.7513C46.9972 28.1061 48.7881 29.9132 51.1216 29.9132C53.4553 29.9132 55.2462 28.1061 55.2462 25.7513C55.2462 23.3966 53.4553 21.5894 51.1216 21.5894C48.8423 21.5894 46.9972 23.3966 46.9972 25.7513Z" clip-rule="evenodd" fill-rule="evenodd"></path>
<path fill="#141413" d="M82.7053 19.2894V32.1585H79.829V30.7894C79.829 30.6799 79.7747 30.5704 79.6662 30.5704C79.5576 30.5156 79.4491 30.5704 79.3948 30.6252C78.3637 31.8299 76.8442 32.487 75.1618 32.487C71.58 32.487 68.7581 29.5299 68.7581 25.7513C68.7581 21.9728 71.58 19.0156 75.1618 19.0156C76.8984 19.0156 78.4179 19.618 79.3948 20.768C79.4491 20.8228 79.5576 20.8775 79.6662 20.8228C79.7747 20.768 79.829 20.7132 79.829 20.6037V19.2894H82.7053ZM71.6886 25.7513C71.6886 28.1061 73.4795 29.9132 75.813 29.9132C78.1467 29.9132 79.9376 28.1061 79.9376 25.7513C79.9376 23.3966 78.1467 21.5894 75.813 21.5894C73.4795 21.5894 71.6886 23.3966 71.6886 25.7513Z" clip-rule="evenodd" fill-rule="evenodd"></path>
<path fill="#141413" d="M88.1331 30.6285C88.0788 30.6285 88.0788 30.6285 88.0245 30.6285C87.916 30.6832 87.8617 30.7379 87.8617 30.8475V32.1618H84.9312V13.707H87.8617V20.6618C87.8617 20.7713 87.916 20.8808 88.0245 20.8808C88.1331 20.9356 88.2417 20.8808 88.2959 20.8261C89.327 19.6761 90.8466 18.9642 92.5289 18.9642C94.2655 18.9642 95.8936 19.6761 97.0875 20.8808C98.2814 22.1404 98.9326 23.838 98.9326 25.6999C98.9326 29.4785 96.1106 32.4356 92.5289 32.4356C90.8466 32.4356 89.2727 31.7785 88.2959 30.6832C88.2417 30.6832 88.1873 30.6285 88.1331 30.6285ZM91.8776 21.5927C89.5441 21.5927 87.7532 23.3999 87.7532 25.7547C87.7532 28.1094 89.5441 29.9165 91.8776 29.9165C94.2112 29.9165 96.0021 28.1094 96.0021 25.7547C96.0021 23.3999 94.157 21.5927 91.8776 21.5927Z" clip-rule="evenodd" fill-rule="evenodd"></path>
<path fill="#141413" d="M107.345 21.918C107.616 21.918 107.887 21.918 108.05 21.9728V19.0704C107.942 19.0704 107.779 19.0156 107.562 19.0156C106.042 19.0156 104.631 19.7823 103.926 20.987C103.871 21.0966 103.763 21.1513 103.654 21.0966C103.546 21.0418 103.492 20.987 103.492 20.8775V19.2894H100.615V32.1585H103.546V26.5181C103.437 23.6704 104.957 21.918 107.345 21.918Z"></path>
<path fill="#141413" d="M112.771 19.2891H109.841V32.1582H112.771V19.2891Z"></path>
<path fill="#141413" d="M111.307 13.707C110.33 13.707 109.516 14.4737 109.516 15.4594C109.516 16.4451 110.33 17.2118 111.307 17.2118C112.284 17.2118 113.098 16.4451 113.098 15.4594C113.098 14.5285 112.284 13.707 111.307 13.707Z"></path>
<path fill="#141413" d="M121.454 19.0156C117.438 19.0156 114.508 21.8632 114.508 25.7513C114.508 27.6681 115.213 29.3656 116.461 30.5704C117.71 31.7752 119.5 32.487 121.454 32.487C123.082 32.487 124.385 32.1585 126.773 30.4608L125.145 28.7632C123.951 29.5299 122.865 29.9132 121.78 29.9132C119.338 29.9132 117.493 28.1061 117.493 25.7513C117.493 23.3966 119.338 21.5894 121.78 21.5894C122.919 21.5894 124.005 21.9728 125.091 22.7394L126.936 21.0418C124.71 19.1799 122.756 19.0156 121.454 19.0156Z"></path>
<path fill="#141413" d="M131.82 26.5214C131.874 26.4665 131.928 26.4665 131.983 26.4665C132.037 26.4665 132.091 26.5214 132.145 26.5761L136.813 32.2165H140.394L134.37 25.0975C134.261 24.9879 134.316 24.8785 134.37 24.769L139.906 19.3475H136.379L131.603 24.0023C131.549 24.057 131.44 24.1118 131.332 24.057C131.222 24.0023 131.168 23.9475 131.168 23.838V13.707H128.238V32.1618H131.168V27.1785C131.168 27.1237 131.222 27.069 131.222 27.0141L131.82 26.5214Z"></path>
<path fill="#141413" d="M145.224 32.487C147.611 32.487 150.054 31.0632 150.054 28.3799C150.054 26.6275 148.914 25.4228 146.581 24.6561L145.007 24.1632C143.921 23.8347 143.433 23.3418 143.433 22.6299C143.433 21.8632 144.138 21.3156 145.17 21.3156C146.146 21.3156 147.015 21.918 147.557 23.0132L149.891 21.8085C149.023 20.0561 147.232 19.0156 145.17 19.0156C142.565 19.0156 140.665 20.6585 140.665 22.9037C140.665 24.7108 141.751 25.9156 143.976 26.5728L145.604 27.0656C146.744 27.3942 147.232 27.8323 147.232 28.599C147.232 29.6942 146.201 30.0775 145.333 30.0775C144.138 30.0775 143.108 29.3108 142.565 28.1061L140.177 29.3108C140.936 31.2823 142.89 32.487 145.224 32.487Z"></path>
<path fill="#141413" d="M66.1005 32.3786C67.0232 32.3786 67.8372 32.3238 68.3256 32.2143V29.75C67.9457 29.8047 67.2944 29.8596 66.8603 29.8596C65.6663 29.8596 64.7981 29.6405 64.7981 27.1762V21.9191C64.7981 21.8096 64.9067 21.7 65.0695 21.7H67.8914V19.4H65.0695C64.9067 19.4 64.7981 19.2905 64.7981 19.181V15.3477H61.9218V19.0715C61.9218 19.181 61.8133 19.2905 61.6505 19.2905H59.6426V21.5905H61.6505C61.8133 21.5905 61.9218 21.7 61.9218 21.8096V27.7786C61.8675 32.3786 64.9609 32.3786 66.1005 32.3786Z"></path>
</g>
</g>
<defs>
<clipPath id="clip0_7908_16916">
<rect transform="translate(0 12.5)" fill="white" height="23" width="150"></rect>
</clipPath>
</defs>
</svg>
