<svg version="1.1" xmlns="http://www.w3.org/2000/svg" viewBox="0 0 712.603594 568.84875" height="568.84875pt" width="712.603594pt" xmlns:xlink="http://www.w3.org/1999/xlink">
 <metadata>
  
   
    
    2026-01-14T04:58:00.501681
    image/svg+xml
    
     
      Matplotlib v3.9.2, https://matplotlib.org/
     
    
   
  
 </metadata>
 <defs>
  <style type="text/css">*{stroke-linejoin: round; stroke-linecap: butt}</style>
 </defs>
 <g id="figure_1">
  <g id="patch_1">
   <path style="fill: #ffffff" d="M -0 568.84875 
L 712.603594 568.84875 
L 712.603594 0 
L -0 0 
z"></path>
  </g>
  <g id="axes_1">
   <g id="patch_2">
    <path style="fill: #ffffff" d="M 41.943594 528.94 
L 705.403594 528.94 
L 705.403594 23.7 
L 41.943594 23.7 
z"></path>
   </g>
   <g id="matplotlib.axis_1">
    <g id="xtick_1">
     <g id="line2d_1">
      <path style="fill: none; stroke: #b0b0b0; stroke-opacity: 0.3; stroke-width: 0.5; stroke-linecap: square" clip-path="url(#p2f93f85652)" d="M 70.156245 528.94 
L 70.156245 23.7"></path>
     </g>
     <g id="line2d_2">
      <defs>
       <path style="stroke: #000000; stroke-width: 0.8" d="M 0 0 
L 0 3.5" id="m2cbab33ef3"></path>
      </defs>
      <g>
       <use style="stroke: #000000; stroke-width: 0.8" y="528.94" x="70.156245" xlink:href="#m2cbab33ef3"></use>
      </g>
     </g>
     <g id="text_1">
      
      <g transform="translate(67.759995 542.69) scale(0.09 -0.09)">
       <defs>
        <path transform="scale(0.015625)" d="M 646 0 
L 1306 0 
L 3094 4202 
L 3094 4608 
L 314 4608 
L 314 4070 
L 2445 4070 
L 646 0 
z" id="AnthropicSansText-Regular-37"></path>
       </defs>
       <use xlink:href="#AnthropicSansText-Regular-37"></use>
      </g>
     </g>
    </g>
    <g id="xtick_2">
     <g id="line2d_3">
      <path style="fill: none; stroke: #b0b0b0; stroke-opacity: 0.3; stroke-width: 0.5; stroke-linecap: square" clip-path="url(#p2f93f85652)" d="M 147.778836 528.94 
L 147.778836 23.7"></path>
     </g>
     <g id="line2d_4">
      <g>
       <use style="stroke: #000000; stroke-width: 0.8" y="528.94" x="147.778836" xlink:href="#m2cbab33ef3"></use>
      </g>
     </g>
     <g id="text_2">
      
      <g transform="translate(145.256727 542.69) scale(0.09 -0.09)">
       <defs>
        <path transform="scale(0.015625)" d="M 1792 2752 
C 1360 2752 1059 3040 1059 3459 
C 1059 3875 1360 4166 1792 4166 
C 2227 4166 2528 3875 2528 3459 
C 2528 3040 2227 2752 1792 2752 
z
M 1792 442 
C 1232 442 854 803 854 1344 
C 854 1882 1232 2246 1792 2246 
C 2355 2246 2733 1882 2733 1344 
C 2733 803 2355 442 1792 442 
z
M 1792 4678 
C 1046 4678 518 4176 518 3488 
C 518 3056 736 2714 1082 2515 
C 598 2298 275 1856 275 1318 
C 275 534 870 -70 1792 -70 
C 2717 -70 3312 534 3312 1318 
C 3312 1856 2992 2298 2506 2515 
C 2848 2710 3069 3056 3069 3488 
C 3069 4176 2538 4678 1792 4678 
z" id="AnthropicSansText-Regular-38"></path>
       </defs>
       <use xlink:href="#AnthropicSansText-Regular-38"></use>
      </g>
     </g>
    </g>
    <g id="xtick_3">
     <g id="line2d_5">
      <path style="fill: none; stroke: #b0b0b0; stroke-opacity: 0.3; stroke-width: 0.5; stroke-linecap: square" clip-path="url(#p2f93f85652)" d="M 225.401427 528.94 
L 225.401427 23.7"></path>
     </g>
     <g id="line2d_6">
      <g>
       <use style="stroke: #000000; stroke-width: 0.8" y="528.94" x="225.401427" xlink:href="#m2cbab33ef3"></use>
      </g>
     </g>
     <g id="text_3">
      
      <g transform="translate(222.843459 542.69) scale(0.09 -0.09)">
       <defs>
        <path transform="scale(0.015625)" d="M 262 3123 
C 262 2221 902 1568 1779 1568 
C 1866 1568 1955 1578 2032 1594 
L 842 0 
L 1578 0 
L 2682 1523 
C 3072 2061 3373 2502 3373 3123 
C 3373 4019 2723 4678 1818 4678 
C 915 4678 262 4019 262 3123 
z
M 838 3123 
C 838 3709 1238 4138 1818 4138 
C 2400 4138 2797 3709 2797 3123 
C 2797 2538 2400 2109 1818 2109 
C 1238 2109 838 2538 838 3123 
z" id="AnthropicSansText-Regular-39"></path>
       </defs>
       <use xlink:href="#AnthropicSansText-Regular-39"></use>
      </g>
     </g>
    </g>
    <g id="xtick_4">
     <g id="line2d_7">
      <path style="fill: none; stroke: #b0b0b0; stroke-opacity: 0.3; stroke-width: 0.5; stroke-linecap: square" clip-path="url(#p2f93f85652)" d="M 303.024019 528.94 
L 303.024019 23.7"></path>
     </g>
     <g id="line2d_8">
      <g>
       <use style="stroke: #000000; stroke-width: 0.8" y="528.94" x="303.024019" xlink:href="#m2cbab33ef3"></use>
      </g>
     </g>
     <g id="text_4">
      
      <g transform="translate(298.636519 542.69) scale(0.09 -0.09)">
       <defs>
        <path transform="scale(0.015625)" d="M 189 3142 
L 1213 3859 
L 1213 0 
L 1802 0 
L 1802 4608 
L 1347 4608 
L 189 3795 
L 189 3142 
z" id="AnthropicSansText-Regular-31"></path>
        <path transform="scale(0.015625)" d="M 1933 -70 
C 2832 -70 3488 592 3488 1485 
L 3488 3123 
C 3488 4019 2832 4678 1933 4678 
C 1034 4678 378 4016 378 3123 
L 378 1485 
C 378 589 1034 -70 1933 -70 
z
M 1933 480 
C 1370 480 966 896 966 1488 
L 966 3120 
C 966 3712 1370 4128 1933 4128 
C 2496 4128 2899 3712 2899 3120 
L 2899 1488 
C 2899 896 2496 480 1933 480 
z" id="AnthropicSansText-Regular-30"></path>
       </defs>
       <use xlink:href="#AnthropicSansText-Regular-31"></use>
       <use x="37.100006" xlink:href="#AnthropicSansText-Regular-30"></use>
      </g>
     </g>
    </g>
    <g id="xtick_5">
     <g id="line2d_9">
      <path style="fill: none; stroke: #b0b0b0; stroke-opacity: 0.3; stroke-width: 0.5; stroke-linecap: square" clip-path="url(#p2f93f85652)" d="M 380.64661 528.94 
L 380.64661 23.7"></path>
     </g>
     <g id="line2d_10">
      <g>
       <use style="stroke: #000000; stroke-width: 0.8" y="528.94" x="380.64661" xlink:href="#m2cbab33ef3"></use>
      </g>
     </g>
     <g id="text_5">
      
      <g transform="translate(377.308172 542.69) scale(0.09 -0.09)">
       <use xlink:href="#AnthropicSansText-Regular-31"></use>
       <use x="37.100006" xlink:href="#AnthropicSansText-Regular-31"></use>
      </g>
     </g>
    </g>
    <g id="xtick_6">
     <g id="line2d_11">
      <path style="fill: none; stroke: #b0b0b0; stroke-opacity: 0.3; stroke-width: 0.5; stroke-linecap: square" clip-path="url(#p2f93f85652)" d="M 458.269201 528.94 
L 458.269201 23.7"></path>
     </g>
     <g id="line2d_12">
      <g>
       <use style="stroke: #000000; stroke-width: 0.8" y="528.94" x="458.269201" xlink:href="#m2cbab33ef3"></use>
      </g>
     </g>
     <g id="text_6">
      
      <g transform="translate(453.987873 542.69) scale(0.09 -0.09)">
       <defs>
        <path transform="scale(0.015625)" d="M 314 0 
L 3402 0 
L 3402 538 
L 1146 538 
L 2138 1510 
C 3011 2371 3306 2675 3306 3296 
C 3306 4090 2717 4678 1846 4678 
C 1046 4678 490 4166 403 3402 
L 966 3402 
C 1011 3827 1354 4160 1846 4160 
C 2390 4160 2726 3792 2726 3293 
C 2726 2800 2480 2586 1757 1869 
L 314 442 
L 314 0 
z" id="AnthropicSansText-Regular-32"></path>
       </defs>
       <use xlink:href="#AnthropicSansText-Regular-31"></use>
       <use x="37.100006" xlink:href="#AnthropicSansText-Regular-32"></use>
      </g>
     </g>
    </g>
    <g id="xtick_7">
     <g id="line2d_13">
      <path style="fill: none; stroke: #b0b0b0; stroke-opacity: 0.3; stroke-width: 0.5; stroke-linecap: square" clip-path="url(#p2f93f85652)" d="M 535.891792 528.94 
L 535.891792 23.7"></path>
     </g>
     <g id="line2d_14">
      <g>
       <use style="stroke: #000000; stroke-width: 0.8" y="528.94" x="535.891792" xlink:href="#m2cbab33ef3"></use>
      </g>
     </g>
     <g id="text_7">
      
      <g transform="translate(531.718042 542.69) scale(0.09 -0.09)">
       <defs>
        <path transform="scale(0.015625)" d="M 477 3453 
L 1011 3453 
C 1043 3891 1344 4166 1766 4166 
C 2214 4166 2502 3875 2502 3478 
C 2502 3024 2230 2752 1597 2752 
L 1312 2752 
L 1312 2246 
L 1565 2246 
C 2246 2246 2707 1990 2707 1325 
C 2707 803 2314 442 1766 442 
C 1254 442 883 726 829 1219 
L 246 1219 
C 330 416 912 -70 1766 -70 
C 2650 -70 3286 499 3286 1302 
C 3286 1878 3008 2317 2381 2522 
C 2822 2717 3043 3072 3043 3498 
C 3043 4170 2506 4678 1766 4678 
C 1018 4678 531 4211 477 3453 
z" id="AnthropicSansText-Regular-33"></path>
       </defs>
       <use xlink:href="#AnthropicSansText-Regular-31"></use>
       <use x="37.100006" xlink:href="#AnthropicSansText-Regular-33"></use>
      </g>
     </g>
    </g>
    <g id="xtick_8">
     <g id="line2d_15">
      <path style="fill: none; stroke: #b0b0b0; stroke-opacity: 0.3; stroke-width: 0.5; stroke-linecap: square" clip-path="url(#p2f93f85652)" d="M 613.514383 528.94 
L 613.514383 23.7"></path>
     </g>
     <g id="line2d_16">
      <g>
       <use style="stroke: #000000; stroke-width: 0.8" y="528.94" x="613.514383" xlink:href="#m2cbab33ef3"></use>
      </g>
     </g>
     <g id="text_8">
      
      <g transform="translate(609.091023 542.69) scale(0.09 -0.09)">
       <defs>
        <path transform="scale(0.015625)" d="M 3677 1763 
L 3011 1763 
L 3011 4643 
L 2557 4643 
L 243 1683 
L 243 1226 
L 2419 1226 
L 2419 0 
L 3011 0 
L 3011 1226 
L 3677 1226 
L 3677 1763 
z
M 902 1763 
L 2419 3709 
L 2419 1763 
L 902 1763 
z" id="AnthropicSansText-Regular-34"></path>
       </defs>
       <use xlink:href="#AnthropicSansText-Regular-31"></use>
       <use x="37.100006" xlink:href="#AnthropicSansText-Regular-34"></use>
      </g>
     </g>
    </g>
    <g id="xtick_9">
     <g id="line2d_17">
      <path style="fill: none; stroke: #b0b0b0; stroke-opacity: 0.3; stroke-width: 0.5; stroke-linecap: square" clip-path="url(#p2f93f85652)" d="M 691.136974 528.94 
L 691.136974 23.7"></path>
     </g>
     <g id="line2d_18">
      <g>
       <use style="stroke: #000000; stroke-width: 0.8" y="528.94" x="691.136974" xlink:href="#m2cbab33ef3"></use>
      </g>
     </g>
     <g id="text_9">
      
      <g transform="translate(686.936505 542.69) scale(0.09 -0.09)">
       <defs>
        <path transform="scale(0.015625)" d="M 3203 4608 
L 925 4608 
L 502 2390 
L 989 2259 
C 1152 2461 1414 2573 1741 2573 
C 2336 2573 2762 2131 2762 1517 
C 2762 902 2336 461 1741 461 
C 1226 461 870 733 803 1178 
L 218 1178 
C 310 422 902 -70 1741 -70 
C 2662 -70 3338 605 3338 1517 
C 3338 2435 2669 3107 1792 3107 
C 1571 3107 1328 3040 1152 2928 
L 1370 4070 
L 3203 4070 
L 3203 4608 
z" id="AnthropicSansText-Regular-35"></path>
       </defs>
       <use xlink:href="#AnthropicSansText-Regular-31"></use>
       <use x="37.100006" xlink:href="#AnthropicSansText-Regular-35"></use>
      </g>
     </g>
    </g>
    <g id="text_10">
     
     <g transform="translate(206.241719 558.69) scale(0.12 -0.12)">
      <defs>
       <path transform="scale(0.015625)" d="M 784 0 
L 1322 1373 
L 3354 1373 
L 3891 0 
L 4554 0 
L 2640 4666 
L 2077 4666 
L 160 0 
L 784 0 
z
M 1539 1926 
L 2339 3962 
L 3136 1926 
L 1539 1926 
z" id="AnthropicSansText-Regular-41"></path>
       <path transform="scale(0.015625)" d="M 2125 0 
L 3421 3456 
L 2838 3456 
L 1821 579 
L 800 3456 
L 182 3456 
L 1478 0 
L 2125 0 
z" id="AnthropicSansText-Regular-76"></path>
       <path transform="scale(0.015625)" d="M 3475 3456 
L 2186 3456 
C 2048 3501 1898 3526 1738 3526 
C 995 3526 435 2986 435 2266 
C 435 1898 579 1581 822 1354 
C 547 1261 365 1021 365 717 
C 365 451 502 240 730 131 
C 333 13 80 -298 80 -688 
C 80 -1229 605 -1578 1430 -1578 
L 1942 -1578 
C 2832 -1578 3430 -1136 3430 -477 
C 3430 80 3002 490 2400 490 
L 1165 490 
C 992 490 870 611 870 781 
C 870 957 995 1075 1165 1075 
L 1290 1075 
C 1427 1030 1578 1005 1738 1005 
C 2480 1005 3040 1546 3040 2266 
C 3040 2531 2963 2774 2829 2973 
C 2928 2957 3024 2947 3120 2947 
L 3475 2947 
L 3475 3456 
z
M 1024 2266 
C 1024 2723 1309 3027 1738 3027 
C 2166 3027 2451 2723 2451 2266 
C 2451 1808 2166 1504 1738 1504 
C 1309 1504 1024 1808 1024 2266 
z
M 1350 -90 
L 2330 -90 
C 2662 -90 2838 -259 2838 -547 
C 2838 -886 2499 -1098 1965 -1098 
L 1469 -1098 
C 944 -1098 650 -915 650 -589 
C 650 -291 925 -90 1350 -90 
z" id="AnthropicSansText-Regular-67"></path>
       <path transform="scale(0.015625)" d="M 438 896 
L 438 0 
L 1072 0 
L 1072 896 
L 438 896 
z" id="AnthropicSansText-Regular-2e"></path>
       <path transform="scale(0.015625)" id="AnthropicSansText-Regular-20"></path>
       <path transform="scale(0.015625)" d="M 134 4608 
L 1875 1811 
L 1875 0 
L 2477 0 
L 2477 1818 
L 4214 4608 
L 3558 4608 
L 2198 2378 
L 838 4608 
L 134 4608 
z" id="AnthropicSansText-Regular-59"></path>
       <path transform="scale(0.015625)" d="M 3402 976 
L 2803 976 
C 2688 627 2387 435 1917 435 
C 1328 435 912 886 880 1594 
L 3411 1594 
L 3411 1805 
C 3411 2829 2790 3526 1862 3526 
C 944 3526 282 2762 282 1728 
C 282 691 954 -70 1917 -70 
C 2694 -70 3258 326 3402 976 
z
M 906 2099 
C 1005 2666 1373 3021 1862 3021 
C 2394 3021 2746 2669 2794 2099 
L 906 2099 
z" id="AnthropicSansText-Regular-65"></path>
       <path transform="scale(0.015625)" d="M 426 2480 
L 966 2480 
C 1011 2826 1258 3021 1645 3021 
C 2090 3021 2339 2768 2339 2320 
L 2339 2150 
L 1715 2096 
C 845 2019 275 1638 275 950 
C 275 349 717 -70 1331 -70 
C 1821 -70 2224 214 2416 643 
L 2416 589 
C 2416 243 2669 0 3024 0 
L 3331 0 
L 3331 509 
L 3110 509 
C 2979 509 2918 576 2918 714 
L 2918 2278 
C 2918 3053 2438 3526 1658 3526 
C 950 3526 477 3123 426 2480 
z
M 877 960 
C 877 1363 1171 1542 1754 1594 
L 2339 1645 
L 2339 1523 
C 2339 883 1974 435 1450 435 
C 1078 435 877 611 877 960 
z" id="AnthropicSansText-Regular-61"></path>
       <path transform="scale(0.015625)" d="M 506 3456 
L 506 0 
L 1082 0 
L 1082 1914 
C 1082 2534 1491 2947 2106 2947 
L 2378 2947 
L 2378 3526 
L 2186 3526 
C 1626 3526 1174 3190 1002 2707 
L 1002 3456 
L 506 3456 
z" id="AnthropicSansText-Regular-72"></path>
       <path transform="scale(0.015625)" d="M 851 1037 
L 282 1037 
C 323 371 870 -70 1642 -70 
C 2432 -70 3005 381 3005 1002 
C 3005 1597 2637 1904 1766 2035 
C 1210 2118 998 2259 998 2550 
C 998 2845 1245 3021 1645 3021 
C 2051 3021 2298 2826 2333 2480 
L 2890 2480 
C 2851 3114 2362 3526 1645 3526 
C 950 3526 422 3088 422 2515 
C 422 1946 768 1645 1565 1526 
C 2195 1434 2413 1290 2413 966 
C 2413 640 2118 435 1642 435 
C 1162 435 902 634 851 1037 
z" id="AnthropicSansText-Regular-73"></path>
       <path transform="scale(0.015625)" d="M 1862 -70 
C 2784 -70 3446 685 3446 1728 
C 3446 2771 2784 3526 1862 3526 
C 944 3526 282 2771 282 1728 
C 282 685 944 -70 1862 -70 
z
M 1862 445 
C 1270 445 877 957 877 1728 
C 877 2499 1270 3011 1862 3011 
C 2458 3011 2851 2499 2851 1728 
C 2851 957 2458 445 1862 445 
z" id="AnthropicSansText-Regular-6f"></path>
       <path transform="scale(0.015625)" d="M 800 3862 
L 800 3456 
L 230 3456 
L 230 2947 
L 800 2947 
L 800 0 
L 1379 0 
L 1379 2947 
L 2269 2947 
L 2269 3456 
L 1379 3456 
L 1379 3776 
C 1379 4122 1549 4291 1891 4291 
L 2512 4291 
L 2512 4800 
L 1786 4800 
C 1203 4800 800 4416 800 3862 
z" id="AnthropicSansText-Regular-66"></path>
       <path transform="scale(0.015625)" d="M 877 1347 
L 266 1347 
C 323 483 938 -64 1910 -64 
C 2829 -64 3504 506 3504 1283 
C 3504 2035 3104 2416 2022 2672 
C 1235 2861 1008 3043 1008 3434 
C 1008 3840 1379 4109 1888 4109 
C 2381 4109 2685 3872 2752 3453 
L 3357 3453 
C 3280 4192 2717 4672 1888 4672 
C 1040 4672 403 4131 403 3398 
C 403 2704 800 2355 1837 2106 
C 2634 1917 2886 1715 2886 1258 
C 2886 794 2496 499 1910 499 
C 1309 499 918 822 877 1347 
z" id="AnthropicSansText-Regular-53"></path>
       <path transform="scale(0.015625)" d="M 2666 2480 
L 3270 2480 
C 3152 3133 2627 3526 1878 3526 
C 941 3526 282 2784 282 1728 
C 282 672 941 -70 1878 -70 
C 2627 -70 3152 323 3270 976 
L 2666 976 
C 2579 634 2298 445 1878 445 
C 1274 445 877 950 877 1728 
C 877 2506 1274 3011 1878 3011 
C 2298 3011 2579 2822 2666 2480 
z" id="AnthropicSansText-Regular-63"></path>
       <path transform="scale(0.015625)" d="M 506 0 
L 1082 0 
L 1082 2128 
C 1082 2640 1459 3011 1974 3011 
C 2454 3011 2752 2714 2752 2227 
L 2752 0 
L 3331 0 
L 3331 2381 
C 3331 3043 2832 3526 2154 3526 
C 1677 3526 1286 3302 1082 2947 
L 1082 4800 
L 506 4800 
L 506 0 
z" id="AnthropicSansText-Regular-68"></path>
       <path transform="scale(0.015625)" d="M 518 4800 
L 518 0 
L 1094 0 
L 1094 4800 
L 518 4800 
z" id="AnthropicSansText-Regular-6c"></path>
       <path transform="scale(0.015625)" d="M 490 4800 
L 490 3904 
L 1123 3904 
L 1123 4800 
L 490 4800 
z
M 518 3456 
L 518 0 
L 1094 0 
L 1094 3456 
L 518 3456 
z" id="AnthropicSansText-Regular-69"></path>
       <path transform="scale(0.015625)" d="M 506 3456 
L 506 0 
L 1082 0 
L 1082 2128 
C 1082 2640 1459 3011 1974 3011 
C 2454 3011 2752 2714 2752 2227 
L 2752 0 
L 3331 0 
L 3331 2381 
C 3331 3043 2832 3526 2154 3526 
C 1594 3526 1168 3242 1002 2790 
L 1002 3456 
L 506 3456 
z" id="AnthropicSansText-Regular-6e"></path>
       <path transform="scale(0.015625)" d="M 1379 1024 
L 1379 2947 
L 2269 2947 
L 2269 3456 
L 1379 3456 
L 1379 4352 
L 800 4352 
L 800 3456 
L 230 3456 
L 230 2947 
L 800 2947 
L 800 938 
C 800 384 1203 0 1786 0 
L 2448 0 
L 2448 509 
L 1891 509 
C 1549 509 1379 678 1379 1024 
z" id="AnthropicSansText-Regular-74"></path>
       <path transform="scale(0.015625)" d="M 1142 1702 
L 1142 4608 
L 538 4608 
L 538 1725 
C 538 627 1248 -70 2323 -70 
C 3398 -70 4109 627 4109 1725 
L 4109 4608 
L 3539 4608 
L 3539 1702 
C 3539 970 3053 502 2339 502 
C 1626 502 1142 970 1142 1702 
z" id="AnthropicSansText-Regular-55"></path>
       <path transform="scale(0.015625)" d="M 2883 1728 
C 2883 957 2483 445 1882 445 
C 1277 445 877 957 877 1728 
C 877 2499 1277 3011 1882 3011 
C 2483 3011 2883 2499 2883 1728 
z
M 282 1728 
C 282 691 902 -70 1744 -70 
C 2288 -70 2736 275 2970 819 
L 2970 0 
L 3462 0 
L 3462 4800 
L 2883 4800 
L 2883 2813 
C 2637 3251 2227 3526 1744 3526 
C 902 3526 282 2765 282 1728 
z" id="AnthropicSansText-Regular-64"></path>
       <path transform="scale(0.015625)" d="M 570 4608 
L 570 0 
L 1174 0 
L 1174 2013 
L 2438 2013 
C 3216 2013 3747 2531 3747 3309 
C 3747 4090 3216 4608 2438 4608 
L 570 4608 
z
M 1174 2566 
L 1174 4054 
L 2390 4054 
C 2845 4054 3133 3766 3133 3309 
C 3133 2854 2845 2566 2390 2566 
L 1174 2566 
z" id="AnthropicSansText-Regular-50"></path>
       <path transform="scale(0.015625)" d="M 506 3456 
L 506 0 
L 1082 0 
L 1082 2262 
C 1082 2694 1405 3011 1846 3011 
C 2253 3011 2502 2758 2502 2346 
L 2502 0 
L 3082 0 
L 3082 2262 
C 3082 2694 3402 3011 3843 3011 
C 4250 3011 4499 2758 4499 2346 
L 4499 0 
L 5078 0 
L 5078 2499 
C 5078 3091 4634 3526 4029 3526 
C 3520 3526 3133 3264 2986 2851 
C 2858 3264 2499 3526 2029 3526 
C 1536 3526 1155 3274 1002 2886 
L 1002 3456 
L 506 3456 
z" id="AnthropicSansText-Regular-6d"></path>
       <path transform="scale(0.015625)" d="M 1082 1728 
C 1082 2499 1482 3011 2086 3011 
C 2691 3011 3091 2499 3091 1728 
C 3091 957 2691 445 2086 445 
C 1482 445 1082 957 1082 1728 
z
M 506 -1536 
L 1082 -1536 
L 1082 650 
C 1331 202 1738 -70 2221 -70 
C 3066 -70 3686 691 3686 1728 
C 3686 2765 3066 3526 2221 3526 
C 1680 3526 1232 3181 998 2637 
L 998 3456 
L 506 3456 
L 506 -1536 
z" id="AnthropicSansText-Regular-70"></path>
       <path transform="scale(0.015625)" d="M 614 2125 
C 614 976 1043 -205 1750 -998 
L 2317 -998 
C 1578 -77 1187 998 1187 2125 
C 1187 3251 1578 4326 2317 5248 
L 1750 5248 
C 1043 4454 614 3274 614 2125 
z" id="AnthropicSansText-Regular-28"></path>
       <path transform="scale(0.015625)" d="M 3901 3261 
L 4566 3261 
C 4406 4118 3632 4678 2611 4678 
C 1325 4678 342 3648 342 2304 
C 342 960 1325 -70 2611 -70 
C 3632 -70 4406 490 4566 1347 
L 3901 1347 
C 3773 819 3283 499 2611 499 
C 1661 499 966 1258 966 2304 
C 966 3350 1661 4109 2611 4109 
C 3283 4109 3773 3789 3901 3261 
z" id="AnthropicSansText-Regular-43"></path>
       <path transform="scale(0.015625)" d="M 1062 1286 
L 1062 3456 
L 483 3456 
L 483 1267 
C 483 480 1059 -70 1891 -70 
C 2723 -70 3299 480 3299 1267 
L 3299 3456 
L 2726 3456 
L 2726 1286 
C 2726 771 2403 448 1894 448 
C 1386 448 1062 771 1062 1286 
z" id="AnthropicSansText-Regular-75"></path>
       <path transform="scale(0.015625)" d="M 570 4608 
L 570 0 
L 1174 0 
L 1174 4608 
L 570 4608 
z" id="AnthropicSansText-Regular-49"></path>
       <path transform="scale(0.015625)" d="M 1971 2125 
C 1971 3274 1546 4454 838 5248 
L 272 5248 
C 1008 4326 1398 3251 1398 2125 
C 1398 998 1008 -77 272 -998 
L 838 -998 
C 1546 -205 1971 976 1971 2125 
z" id="AnthropicSansText-Regular-29"></path>
      </defs>
      <use xlink:href="#AnthropicSansText-Regular-41"></use>
      <use x="73.650009" xlink:href="#AnthropicSansText-Regular-76"></use>
      <use x="129.950012" xlink:href="#AnthropicSansText-Regular-67"></use>
      <use x="187.000015" xlink:href="#AnthropicSansText-Regular-2e"></use>
      <use x="210.600021" xlink:href="#AnthropicSansText-Regular-20"></use>
      <use x="231.800018" xlink:href="#AnthropicSansText-Regular-59"></use>
      <use x="299.750031" xlink:href="#AnthropicSansText-Regular-65"></use>
      <use x="357.65004" xlink:href="#AnthropicSansText-Regular-61"></use>
      <use x="412.300049" xlink:href="#AnthropicSansText-Regular-72"></use>
      <use x="452.550049" xlink:href="#AnthropicSansText-Regular-73"></use>
      <use x="503.900055" xlink:href="#AnthropicSansText-Regular-20"></use>
      <use x="525.100052" xlink:href="#AnthropicSansText-Regular-6f"></use>
      <use x="583.350052" xlink:href="#AnthropicSansText-Regular-66"></use>
      <use x="625.200058" xlink:href="#AnthropicSansText-Regular-20"></use>
      <use x="646.400055" xlink:href="#AnthropicSansText-Regular-53"></use>
      <use x="705.250061" xlink:href="#AnthropicSansText-Regular-63"></use>
      <use x="760.450073" xlink:href="#AnthropicSansText-Regular-68"></use>
      <use x="820.150085" xlink:href="#AnthropicSansText-Regular-6f"></use>
      <use x="878.400085" xlink:href="#AnthropicSansText-Regular-6f"></use>
      <use x="936.650085" xlink:href="#AnthropicSansText-Regular-6c"></use>
      <use x="961.850082" xlink:href="#AnthropicSansText-Regular-69"></use>
      <use x="987.050079" xlink:href="#AnthropicSansText-Regular-6e"></use>
      <use x="1046.750092" xlink:href="#AnthropicSansText-Regular-67"></use>
      <use x="1103.800095" xlink:href="#AnthropicSansText-Regular-20"></use>
      <use x="1125.000092" xlink:href="#AnthropicSansText-Regular-74"></use>
      <use x="1166.850098" xlink:href="#AnthropicSansText-Regular-6f"></use>
      <use x="1225.100098" xlink:href="#AnthropicSansText-Regular-20"></use>
      <use x="1246.300095" xlink:href="#AnthropicSansText-Regular-55"></use>
      <use x="1318.900101" xlink:href="#AnthropicSansText-Regular-6e"></use>
      <use x="1378.600113" xlink:href="#AnthropicSansText-Regular-64"></use>
      <use x="1440.600128" xlink:href="#AnthropicSansText-Regular-65"></use>
      <use x="1498.500137" xlink:href="#AnthropicSansText-Regular-72"></use>
      <use x="1538.750137" xlink:href="#AnthropicSansText-Regular-73"></use>
      <use x="1590.100143" xlink:href="#AnthropicSansText-Regular-74"></use>
      <use x="1631.95015" xlink:href="#AnthropicSansText-Regular-61"></use>
      <use x="1686.600159" xlink:href="#AnthropicSansText-Regular-6e"></use>
      <use x="1746.300171" xlink:href="#AnthropicSansText-Regular-64"></use>
      <use x="1808.300186" xlink:href="#AnthropicSansText-Regular-20"></use>
      <use x="1829.500183" xlink:href="#AnthropicSansText-Regular-50"></use>
      <use x="1890.600189" xlink:href="#AnthropicSansText-Regular-72"></use>
      <use x="1930.850189" xlink:href="#AnthropicSansText-Regular-6f"></use>
      <use x="1989.100189" xlink:href="#AnthropicSansText-Regular-6d"></use>
      <use x="2076.200211" xlink:href="#AnthropicSansText-Regular-70"></use>
      <use x="2138.200226" xlink:href="#AnthropicSansText-Regular-74"></use>
      <use x="2180.050232" xlink:href="#AnthropicSansText-Regular-73"></use>
      <use x="2231.400238" xlink:href="#AnthropicSansText-Regular-20"></use>
      <use x="2252.600235" xlink:href="#AnthropicSansText-Regular-28"></use>
      <use x="2293.000244" xlink:href="#AnthropicSansText-Regular-43"></use>
      <use x="2369.150253" xlink:href="#AnthropicSansText-Regular-6c"></use>
      <use x="2394.35025" xlink:href="#AnthropicSansText-Regular-61"></use>
      <use x="2449.000259" xlink:href="#AnthropicSansText-Regular-75"></use>
      <use x="2508.100266" xlink:href="#AnthropicSansText-Regular-64"></use>
      <use x="2570.100281" xlink:href="#AnthropicSansText-Regular-65"></use>
      <use x="2628.00029" xlink:href="#AnthropicSansText-Regular-20"></use>
      <use x="2649.200287" xlink:href="#AnthropicSansText-Regular-41"></use>
      <use x="2722.850296" xlink:href="#AnthropicSansText-Regular-49"></use>
      <use x="2750.100296" xlink:href="#AnthropicSansText-Regular-29"></use>
     </g>
    </g>
   </g>
   <g id="matplotlib.axis_2">
    <g id="ytick_1">
     <g id="line2d_19">
      <path style="fill: none; stroke: #b0b0b0; stroke-opacity: 0.3; stroke-width: 0.5; stroke-linecap: square" clip-path="url(#p2f93f85652)" d="M 41.943594 481.263558 
L 705.403594 481.263558"></path>
     </g>
     <g id="line2d_20">
      <defs>
       <path style="stroke: #000000; stroke-width: 0.8" d="M 0 0 
L -3.5 0" id="m473c5e22fb"></path>
      </defs>
      <g>
       <use style="stroke: #000000; stroke-width: 0.8" y="481.263558" x="41.943594" xlink:href="#m473c5e22fb"></use>
      </g>
     </g>
     <g id="text_11">
      
      <g transform="translate(24.282813 484.638558) scale(0.09 -0.09)">
       <use xlink:href="#AnthropicSansText-Regular-32"></use>
       <use x="58.050003" xlink:href="#AnthropicSansText-Regular-30"></use>
      </g>
     </g>
    </g>
    <g id="ytick_2">
     <g id="line2d_21">
      <path style="fill: none; stroke: #b0b0b0; stroke-opacity: 0.3; stroke-width: 0.5; stroke-linecap: square" clip-path="url(#p2f93f85652)" d="M 41.943594 414.459016 
L 705.403594 414.459016"></path>
     </g>
     <g id="line2d_22">
      <g>
       <use style="stroke: #000000; stroke-width: 0.8" y="414.459016" x="41.943594" xlink:href="#m473c5e22fb"></use>
      </g>
     </g>
     <g id="text_12">
      
      <g transform="translate(24.497969 417.834016) scale(0.09 -0.09)">
       <use xlink:href="#AnthropicSansText-Regular-33"></use>
       <use x="55.650009" xlink:href="#AnthropicSansText-Regular-30"></use>
      </g>
     </g>
    </g>
    <g id="ytick_3">
     <g id="line2d_23">
      <path style="fill: none; stroke: #b0b0b0; stroke-opacity: 0.3; stroke-width: 0.5; stroke-linecap: square" clip-path="url(#p2f93f85652)" d="M 41.943594 347.654473 
L 705.403594 347.654473"></path>
     </g>
     <g id="line2d_24">
      <g>
       <use style="stroke: #000000; stroke-width: 0.8" y="347.654473" x="41.943594" xlink:href="#m473c5e22fb"></use>
      </g>
     </g>
     <g id="text_13">
      
      <g transform="translate(23.99875 351.029473) scale(0.09 -0.09)">
       <use xlink:href="#AnthropicSansText-Regular-34"></use>
       <use x="61.200012" xlink:href="#AnthropicSansText-Regular-30"></use>
      </g>
     </g>
    </g>
    <g id="ytick_4">
     <g id="line2d_25">
      <path style="fill: none; stroke: #b0b0b0; stroke-opacity: 0.3; stroke-width: 0.5; stroke-linecap: square" clip-path="url(#p2f93f85652)" d="M 41.943594 280.849931 
L 705.403594 280.849931"></path>
     </g>
     <g id="line2d_26">
      <g>
       <use style="stroke: #000000; stroke-width: 0.8" y="280.849931" x="41.943594" xlink:href="#m473c5e22fb"></use>
      </g>
     </g>
     <g id="text_14">
      
      <g transform="translate(24.444531 284.224931) scale(0.09 -0.09)">
       <use xlink:href="#AnthropicSansText-Regular-35"></use>
       <use x="56.25" xlink:href="#AnthropicSansText-Regular-30"></use>
      </g>
     </g>
    </g>
    <g id="ytick_5">
     <g id="line2d_27">
      <path style="fill: none; stroke: #b0b0b0; stroke-opacity: 0.3; stroke-width: 0.5; stroke-linecap: square" clip-path="url(#p2f93f85652)" d="M 41.943594 214.045388 
L 705.403594 214.045388"></path>
     </g>
     <g id="line2d_28">
      <g>
       <use style="stroke: #000000; stroke-width: 0.8" y="214.045388" x="41.943594" xlink:href="#m473c5e22fb"></use>
      </g>
     </g>
     <g id="text_15">
      
      <g transform="translate(24.391094 217.420388) scale(0.09 -0.09)">
       <defs>
        <path transform="scale(0.015625)" d="M 1818 -70 
C 2723 -70 3373 589 3373 1485 
C 3373 2384 2739 3040 1856 3040 
C 1734 3040 1619 3021 1514 2986 
L 2650 4608 
L 1926 4608 
L 902 3085 
C 454 2410 262 2022 262 1485 
C 262 589 912 -70 1818 -70 
z
M 1818 470 
C 1242 470 838 893 838 1485 
C 838 2077 1242 2499 1818 2499 
C 2394 2499 2797 2077 2797 1485 
C 2797 893 2394 470 1818 470 
z" id="AnthropicSansText-Regular-36"></path>
       </defs>
       <use xlink:href="#AnthropicSansText-Regular-36"></use>
       <use x="56.850006" xlink:href="#AnthropicSansText-Regular-30"></use>
      </g>
     </g>
    </g>
    <g id="ytick_6">
     <g id="line2d_29">
      <path style="fill: none; stroke: #b0b0b0; stroke-opacity: 0.3; stroke-width: 0.5; stroke-linecap: square" clip-path="url(#p2f93f85652)" d="M 41.943594 147.240845 
L 705.403594 147.240845"></path>
     </g>
     <g id="line2d_30">
      <g>
       <use style="stroke: #000000; stroke-width: 0.8" y="147.240845" x="41.943594" xlink:href="#m473c5e22fb"></use>
      </g>
     </g>
     <g id="text_16">
      
      <g transform="translate(24.714531 150.615845) scale(0.09 -0.09)">
       <use xlink:href="#AnthropicSansText-Regular-37"></use>
       <use x="53.25" xlink:href="#AnthropicSansText-Regular-30"></use>
      </g>
     </g>
    </g>
    <g id="ytick_7">
     <g id="line2d_31">
      <path style="fill: none; stroke: #b0b0b0; stroke-opacity: 0.3; stroke-width: 0.5; stroke-linecap: square" clip-path="url(#p2f93f85652)" d="M 41.943594 80.436303 
L 705.403594 80.436303"></path>
     </g>
     <g id="line2d_32">
      <g>
       <use style="stroke: #000000; stroke-width: 0.8" y="80.436303" x="41.943594" xlink:href="#m473c5e22fb"></use>
      </g>
     </g>
     <g id="text_17">
      
      <g transform="translate(24.462813 83.811303) scale(0.09 -0.09)">
       <use xlink:href="#AnthropicSansText-Regular-38"></use>
       <use x="56.050003" xlink:href="#AnthropicSansText-Regular-30"></use>
      </g>
     </g>
    </g>
    <g id="text_18">
     
     <g transform="translate(17.04 418.848125) rotate(-90) scale(0.12 -0.12)">
      <defs>
       <path transform="scale(0.015625)" d="M 1533 4678 
C 848 4678 333 4170 333 3488 
C 333 2806 848 2298 1533 2298 
C 2221 2298 2736 2806 2736 3488 
C 2736 3741 2666 3968 2541 4157 
L 4045 4157 
L 1466 0 
L 2029 0 
L 4653 4234 
L 4653 4608 
L 1958 4608 
C 1830 4653 1683 4678 1533 4678 
z
M 1533 4205 
C 1949 4205 2237 3907 2237 3488 
C 2237 3066 1949 2771 1533 2771 
C 1120 2771 832 3066 832 3488 
C 832 3907 1120 4205 1533 4205 
z
M 4816 -70 
C 5504 -70 6019 438 6019 1120 
C 6019 1802 5504 2310 4816 2310 
C 4131 2310 3616 1802 3616 1120 
C 3616 438 4131 -70 4816 -70 
z
M 4816 403 
C 4403 403 4115 701 4115 1120 
C 4115 1542 4403 1837 4816 1837 
C 5232 1837 5520 1542 5520 1120 
C 5520 701 5232 403 4816 403 
z" id="AnthropicSansText-Regular-25"></path>
       <path transform="scale(0.015625)" d="M 250 4608 
L 1395 -61 
L 1984 -61 
L 3235 3702 
L 4413 -61 
L 5008 -61 
L 6234 4608 
L 5658 4608 
L 4730 861 
L 3558 4608 
L 2976 4608 
L 1734 877 
L 883 4608 
L 250 4608 
z" id="AnthropicSansText-Regular-57"></path>
       <path transform="scale(0.015625)" d="M 506 4800 
L 506 0 
L 1082 0 
L 1082 1677 
L 2637 0 
L 3443 0 
L 1722 1773 
L 3293 3456 
L 2534 3456 
L 1082 1782 
L 1082 4800 
L 506 4800 
z" id="AnthropicSansText-Regular-6b"></path>
       <path transform="scale(0.015625)" d="M 227 3456 
L 1142 -35 
L 1763 -35 
L 2595 2739 
L 3437 -35 
L 4058 -35 
L 5040 3456 
L 4496 3456 
L 3779 701 
L 2941 3456 
L 2307 3456 
L 1482 704 
L 816 3456 
L 227 3456 
z" id="AnthropicSansText-Regular-77"></path>
       <path transform="scale(0.015625)" d="M 570 4608 
L 570 0 
L 2547 0 
C 3453 0 3984 490 3984 1318 
C 3984 1853 3642 2282 3139 2413 
C 3469 2586 3728 2986 3728 3366 
C 3728 4131 3203 4608 2371 4608 
L 570 4608 
z
M 2390 2650 
L 1174 2650 
L 1174 4054 
L 2422 4054 
C 2826 4054 3110 3763 3110 3341 
C 3110 2934 2816 2650 2390 2650 
z
M 2570 554 
L 1174 554 
L 1174 2099 
L 2570 2099 
C 3027 2099 3366 1779 3366 1344 
C 3366 867 3053 554 2570 554 
z" id="AnthropicSansText-Regular-42"></path>
       <path transform="scale(0.015625)" d="M 358 2947 
L 874 2947 
L 1158 4800 
L 640 4800 
L 358 2947 
z" id="AnthropicSansText-Regular-27"></path>
       <path transform="scale(0.015625)" d="M 570 4608 
L 570 0 
L 2051 0 
C 3478 0 4406 906 4406 2304 
C 4406 3702 3478 4608 2051 4608 
L 570 4608 
z
M 1971 554 
L 1174 554 
L 1174 4054 
L 1971 4054 
C 3120 4054 3792 3408 3792 2304 
C 3792 1200 3120 554 1971 554 
z" id="AnthropicSansText-Regular-44"></path>
       <path transform="scale(0.015625)" d="M 570 4608 
L 570 0 
L 1174 0 
L 1174 2099 
L 3571 2099 
L 3571 0 
L 4173 0 
L 4173 4608 
L 3571 4608 
L 3571 2650 
L 1174 2650 
L 1174 4608 
L 570 4608 
z" id="AnthropicSansText-Regular-48"></path>
       <path transform="scale(0.015625)" d="M 570 4608 
L 570 0 
L 3514 0 
L 3514 554 
L 1174 554 
L 1174 4608 
L 570 4608 
z" id="AnthropicSansText-Regular-4c"></path>
      </defs>
      <use xlink:href="#AnthropicSansText-Regular-25"></use>
      <use x="99.250015" xlink:href="#AnthropicSansText-Regular-20"></use>
      <use x="120.450012" xlink:href="#AnthropicSansText-Regular-57"></use>
      <use x="221.750031" xlink:href="#AnthropicSansText-Regular-6f"></use>
      <use x="280.000031" xlink:href="#AnthropicSansText-Regular-72"></use>
      <use x="320.250031" xlink:href="#AnthropicSansText-Regular-6b"></use>
      <use x="376.90004" xlink:href="#AnthropicSansText-Regular-65"></use>
      <use x="434.800049" xlink:href="#AnthropicSansText-Regular-72"></use>
      <use x="475.050049" xlink:href="#AnthropicSansText-Regular-73"></use>
      <use x="526.400055" xlink:href="#AnthropicSansText-Regular-20"></use>
      <use x="547.600052" xlink:href="#AnthropicSansText-Regular-77"></use>
      <use x="629.90007" xlink:href="#AnthropicSansText-Regular-69"></use>
      <use x="655.100067" xlink:href="#AnthropicSansText-Regular-74"></use>
      <use x="696.950073" xlink:href="#AnthropicSansText-Regular-68"></use>
      <use x="756.650085" xlink:href="#AnthropicSansText-Regular-20"></use>
      <use x="777.850082" xlink:href="#AnthropicSansText-Regular-42"></use>
      <use x="843.450089" xlink:href="#AnthropicSansText-Regular-61"></use>
      <use x="898.100098" xlink:href="#AnthropicSansText-Regular-63"></use>
      <use x="953.30011" xlink:href="#AnthropicSansText-Regular-68"></use>
      <use x="1013.000122" xlink:href="#AnthropicSansText-Regular-65"></use>
      <use x="1070.900131" xlink:href="#AnthropicSansText-Regular-6c"></use>
      <use x="1096.100128" xlink:href="#AnthropicSansText-Regular-6f"></use>
      <use x="1154.350128" xlink:href="#AnthropicSansText-Regular-72"></use>
      <use x="1194.600128" xlink:href="#AnthropicSansText-Regular-27"></use>
      <use x="1218.250122" xlink:href="#AnthropicSansText-Regular-73"></use>
      <use x="1269.600128" xlink:href="#AnthropicSansText-Regular-20"></use>
      <use x="1290.800125" xlink:href="#AnthropicSansText-Regular-44"></use>
      <use x="1365.000137" xlink:href="#AnthropicSansText-Regular-65"></use>
      <use x="1422.900146" xlink:href="#AnthropicSansText-Regular-67"></use>
      <use x="1479.95015" xlink:href="#AnthropicSansText-Regular-72"></use>
      <use x="1520.20015" xlink:href="#AnthropicSansText-Regular-65"></use>
      <use x="1578.100159" xlink:href="#AnthropicSansText-Regular-65"></use>
      <use x="1636.000168" xlink:href="#AnthropicSansText-Regular-20"></use>
      <use x="1657.200165" xlink:href="#AnthropicSansText-Regular-6f"></use>
      <use x="1715.450165" xlink:href="#AnthropicSansText-Regular-72"></use>
      <use x="1755.700165" xlink:href="#AnthropicSansText-Regular-20"></use>
      <use x="1776.900162" xlink:href="#AnthropicSansText-Regular-48"></use>
      <use x="1851.050171" xlink:href="#AnthropicSansText-Regular-69"></use>
      <use x="1876.250168" xlink:href="#AnthropicSansText-Regular-67"></use>
      <use x="1933.300171" xlink:href="#AnthropicSansText-Regular-68"></use>
      <use x="1993.000183" xlink:href="#AnthropicSansText-Regular-65"></use>
      <use x="2050.900192" xlink:href="#AnthropicSansText-Regular-72"></use>
      <use x="2091.150192" xlink:href="#AnthropicSansText-Regular-20"></use>
      <use x="2112.350189" xlink:href="#AnthropicSansText-Regular-28"></use>
      <use x="2152.750198" xlink:href="#AnthropicSansText-Regular-42"></use>
      <use x="2218.350204" xlink:href="#AnthropicSansText-Regular-4c"></use>
      <use x="2276.150208" xlink:href="#AnthropicSansText-Regular-53"></use>
      <use x="2335.000214" xlink:href="#AnthropicSansText-Regular-29"></use>
     </g>
    </g>
   </g>
   <g id="PathCollection_1">
    <defs>
     <path style="stroke: #d97757; stroke-opacity: 0.8" d="M 0 5 
C 1.326016 5 2.597899 4.473168 3.535534 3.535534 
C 4.473168 2.597899 5 1.326016 5 0 
C 5 -1.326016 4.473168 -2.597899 3.535534 -3.535534 
C 2.597899 -4.473168 1.326016 -5 0 -5 
C -1.326016 -5 -2.597899 -4.473168 -3.535534 -3.535534 
C -4.473168 -2.597899 -5 -1.326016 -5 0 
C -5 1.326016 -4.473168 2.597899 -3.535534 3.535534 
C -2.597899 4.473168 -1.326016 5 0 5 
z" id="mbdd7af6f10"></path>
    </defs>
    <g clip-path="url(#p2f93f85652)">
     <use style="fill: #d97757; fill-opacity: 0.8; stroke: #d97757; stroke-opacity: 0.8" y="485.617372" x="72.100866" xlink:href="#mbdd7af6f10"></use>
     <use style="fill: #d97757; fill-opacity: 0.8; stroke: #d97757; stroke-opacity: 0.8" y="447.469674" x="163.143694" xlink:href="#mbdd7af6f10"></use>
     <use style="fill: #d97757; fill-opacity: 0.8; stroke: #d97757; stroke-opacity: 0.8" y="447.930395" x="199.645342" xlink:href="#mbdd7af6f10"></use>
     <use style="fill: #d97757; fill-opacity: 0.8; stroke: #d97757; stroke-opacity: 0.8" y="444.290699" x="228.07819" xlink:href="#mbdd7af6f10"></use>
     <use style="fill: #d97757; fill-opacity: 0.8; stroke: #d97757; stroke-opacity: 0.8" y="374.925042" x="265.296087" xlink:href="#mbdd7af6f10"></use>
     <use style="fill: #d97757; fill-opacity: 0.8; stroke: #d97757; stroke-opacity: 0.8" y="335.629655" x="299.495277" xlink:href="#mbdd7af6f10"></use>
     <use style="fill: #d97757; fill-opacity: 0.8; stroke: #d97757; stroke-opacity: 0.8" y="288.520935" x="329.413753" xlink:href="#mbdd7af6f10"></use>
     <use style="fill: #d97757; fill-opacity: 0.8; stroke: #d97757; stroke-opacity: 0.8" y="287.622529" x="366.867301" xlink:href="#mbdd7af6f10"></use>
     <use style="fill: #d97757; fill-opacity: 0.8; stroke: #d97757; stroke-opacity: 0.8" y="234.778655" x="397.32656" xlink:href="#mbdd7af6f10"></use>
     <use style="fill: #d97757; fill-opacity: 0.8; stroke: #d97757; stroke-opacity: 0.8" y="227.429332" x="420.107472" xlink:href="#mbdd7af6f10"></use>
     <use style="fill: #d97757; fill-opacity: 0.8; stroke: #d97757; stroke-opacity: 0.8" y="276.749514" x="447.514313" xlink:href="#mbdd7af6f10"></use>
     <use style="fill: #d97757; fill-opacity: 0.8; stroke: #d97757; stroke-opacity: 0.8" y="307.756036" x="474.948627" xlink:href="#mbdd7af6f10"></use>
     <use style="fill: #d97757; fill-opacity: 0.8; stroke: #d97757; stroke-opacity: 0.8" y="273.310561" x="496.085489" xlink:href="#mbdd7af6f10"></use>
     <use style="fill: #d97757; fill-opacity: 0.8; stroke: #d97757; stroke-opacity: 0.8" y="144.5917" x="513.602761" xlink:href="#mbdd7af6f10"></use>
     <use style="fill: #d97757; fill-opacity: 0.8; stroke: #d97757; stroke-opacity: 0.8" y="188.590554" x="533.503091" xlink:href="#mbdd7af6f10"></use>
     <use style="fill: #d97757; fill-opacity: 0.8; stroke: #d97757; stroke-opacity: 0.8" y="153.644867" x="555.368225" xlink:href="#mbdd7af6f10"></use>
     <use style="fill: #d97757; fill-opacity: 0.8; stroke: #d97757; stroke-opacity: 0.8" y="172.26869" x="582.302714" xlink:href="#mbdd7af6f10"></use>
     <use style="fill: #d97757; fill-opacity: 0.8; stroke: #d97757; stroke-opacity: 0.8" y="46.665455" x="604.809482" xlink:href="#mbdd7af6f10"></use>
     <use style="fill: #d97757; fill-opacity: 0.8; stroke: #d97757; stroke-opacity: 0.8" y="81.449889" x="621.348256" xlink:href="#mbdd7af6f10"></use>
     <use style="fill: #d97757; fill-opacity: 0.8; stroke: #d97757; stroke-opacity: 0.8" y="165.807901" x="675.246321" xlink:href="#mbdd7af6f10"></use>
    </g>
   </g>
   <g id="line2d_33">
    <path style="fill: none; stroke-dasharray: 5.55,2.4; stroke-dashoffset: 0; stroke: #d97757; stroke-opacity: 0.7; stroke-width: 1.5" clip-path="url(#p2f93f85652)" d="M 72.100866 505.974545 
L 78.193245 501.734079 
L 84.285623 497.493613 
L 90.378001 493.253146 
L 96.47038 489.01268 
L 102.562758 484.772213 
L 108.655136 480.531747 
L 114.747515 476.29128 
L 120.839893 472.050814 
L 126.932271 467.810348 
L 133.02465 463.569881 
L 139.117028 459.329415 
L 145.209406 455.088948 
L 151.301785 450.848482 
L 157.394163 446.608015 
L 163.486541 442.367549 
L 169.57892 438.127082 
L 175.671298 433.886616 
L 181.763676 429.64615 
L 187.856055 425.405683 
L 193.948433 421.165217 
L 200.040811 416.92475 
L 206.13319 412.684284 
L 212.225568 408.443817 
L 218.317946 404.203351 
L 224.410325 399.962885 
L 230.502703 395.722418 
L 236.595081 391.481952 
L 242.68746 387.241485 
L 248.779838 383.001019 
L 254.872216 378.760552 
L 260.964595 374.520086 
L 267.056973 370.279619 
L 273.149351 366.039153 
L 279.24173 361.798687 
L 285.334108 357.55822 
L 291.426486 353.317754 
L 297.518865 349.077287 
L 303.611243 344.836821 
L 309.703621 340.596354 
L 315.796 336.355888 
L 321.888378 332.115422 
L 327.980756 327.874955 
L 334.073135 323.634489 
L 340.165513 319.394022 
L 346.257891 315.153556 
L 352.35027 310.913089 
L 358.442648 306.672623 
L 364.535026 302.432156 
L 370.627405 298.19169 
L 376.719783 293.951224 
L 382.812161 289.710757 
L 388.90454 285.470291 
L 394.996918 281.229824 
L 401.089296 276.989358 
L 407.181675 272.748891 
L 413.274053 268.508425 
L 419.366431 264.267959 
L 425.45881 260.027492 
L 431.551188 255.787026 
L 437.643566 251.546559 
L 443.735945 247.306093 
L 449.828323 243.065626 
L 455.920701 238.82516 
L 462.01308 234.584693 
L 468.105458 230.344227 
L 474.197836 226.103761 
L 480.290215 221.863294 
L 486.382593 217.622828 
L 492.474971 213.382361 
L 498.567349 209.141895 
L 504.659728 204.901428 
L 510.752106 200.660962 
L 516.844484 196.420496 
L 522.936863 192.180029 
L 529.029241 187.939563 
L 535.121619 183.699096 
L 541.213998 179.45863 
L 547.306376 175.218163 
L 553.398754 170.977697 
L 559.491133 166.73723 
L 565.583511 162.496764 
L 571.675889 158.256298 
L 577.768268 154.015831 
L 583.860646 149.775365 
L 589.953024 145.534898 
L 596.045403 141.294432 
L 602.137781 137.053965 
L 608.230159 132.813499 
L 614.322538 128.573032 
L 620.414916 124.332566 
L 626.507294 120.0921 
L 632.599673 115.851633 
L 638.692051 111.611167 
L 644.784429 107.3707 
L 650.876808 103.130234 
L 656.969186 98.889767 
L 663.061564 94.649301 
L 669.153943 90.408835 
L 675.246321 86.168368"></path>
   </g>
   <g id="patch_3">
    <path style="fill: none; stroke: #333333; stroke-width: 0.8; stroke-linejoin: miter; stroke-linecap: square" d="M 41.943594 528.94 
L 41.943594 23.7"></path>
   </g>
   <g id="patch_4">
    <path style="fill: none; stroke: #333333; stroke-width: 0.8; stroke-linejoin: miter; stroke-linecap: square" d="M 705.403594 528.94 
L 705.403594 23.7"></path>
   </g>
   <g id="patch_5">
    <path style="fill: none; stroke: #333333; stroke-width: 0.8; stroke-linejoin: miter; stroke-linecap: square" d="M 41.943594 528.94 
L 705.403594 528.94"></path>
   </g>
   <g id="patch_6">
    <path style="fill: none; stroke: #333333; stroke-width: 0.8; stroke-linejoin: miter; stroke-linecap: square" d="M 41.943594 23.7 
L 705.403594 23.7"></path>
   </g>
   <g id="text_19">
    <g id="patch_7">
     <path style="fill: #ffffff; opacity: 0.8; stroke: #000000; stroke-linejoin: miter" d="M 75.116594 88.232 
L 137.321594 88.232 
Q 140.621594 88.232 140.621594 84.932 
L 140.621594 48.962 
Q 140.621594 45.662 137.321594 45.662 
L 75.116594 45.662 
Q 71.816594 45.662 71.816594 48.962 
L 71.816594 84.932 
Q 71.816594 88.232 75.116594 88.232 
z"></path>
    </g>
    
    <g transform="translate(75.116594 57.212) scale(0.11 -0.11)">
     <defs>
      <path transform="scale(0.015625)" d="M 1139 0 
L 1139 3674 
L 3936 0 
L 4467 0 
L 4467 4608 
L 3898 4608 
L 3898 1037 
L 1178 4608 
L 570 4608 
L 570 0 
L 1139 0 
z" id="AnthropicSansText-Regular-4e"></path>
      <path transform="scale(0.015625)" d="M 608 3325 
L 608 2819 
L 3488 2819 
L 3488 3325 
L 608 3325 
z
M 608 1789 
L 608 1283 
L 3488 1283 
L 3488 1789 
L 608 1789 
z" id="AnthropicSansText-Regular-3d"></path>
     </defs>
     <use xlink:href="#AnthropicSansText-Regular-4e"></use>
     <use x="78.700012" xlink:href="#AnthropicSansText-Regular-20"></use>
     <use x="99.900009" xlink:href="#AnthropicSansText-Regular-3d"></use>
     <use x="163.900024" xlink:href="#AnthropicSansText-Regular-20"></use>
     <use x="185.100021" xlink:href="#AnthropicSansText-Regular-35"></use>
     <use x="241.350021" xlink:href="#AnthropicSansText-Regular-37"></use>
     <use x="294.600021" xlink:href="#AnthropicSansText-Regular-36"></use>
    </g>
    
    <g transform="translate(75.116594 69.752) scale(0.11 -0.11)">
     <defs>
      <path transform="scale(0.015625)" d="M 1174 0 
L 1174 2083 
L 2250 2083 
L 3450 0 
L 4157 0 
L 2906 2093 
C 3568 2166 4003 2650 4003 3344 
C 4003 4102 3488 4608 2730 4608 
L 570 4608 
L 570 0 
L 1174 0 
z
M 2682 2637 
L 1174 2637 
L 1174 4054 
L 2682 4054 
C 3114 4054 3389 3779 3389 3344 
C 3389 2912 3114 2637 2682 2637 
z" id="AnthropicSansText-Regular-52"></path>
      <path transform="scale(0.015625)" d="M 1114 3334 
L 371 2614 
L 371 2304 
L 1984 2304 
L 1984 2682 
L 973 2682 
L 1395 3082 
C 1798 3462 1936 3642 1936 3936 
C 1936 4358 1629 4650 1165 4650 
C 736 4650 445 4381 403 3958 
L 800 3958 
C 819 4150 960 4291 1165 4291 
C 1382 4291 1523 4141 1523 3933 
C 1523 3738 1434 3645 1114 3334 
z" id="AnthropicSansText-Regular-b2"></path>
     </defs>
     <use xlink:href="#AnthropicSansText-Regular-52"></use>
     <use x="68.250015" xlink:href="#AnthropicSansText-Regular-b2"></use>
     <use x="104.850021" xlink:href="#AnthropicSansText-Regular-20"></use>
     <use x="126.050018" xlink:href="#AnthropicSansText-Regular-3d"></use>
     <use x="190.050034" xlink:href="#AnthropicSansText-Regular-20"></use>
     <use x="211.250031" xlink:href="#AnthropicSansText-Regular-30"></use>
     <use x="271.65004" xlink:href="#AnthropicSansText-Regular-2e"></use>
     <use x="295.250046" xlink:href="#AnthropicSansText-Regular-32"></use>
     <use x="353.300049" xlink:href="#AnthropicSansText-Regular-38"></use>
     <use x="409.350052" xlink:href="#AnthropicSansText-Regular-32"></use>
    </g>
    
    <g transform="translate(75.116594 82.292) scale(0.11 -0.11)">
     <use xlink:href="#AnthropicSansText-Regular-53"></use>
     <use x="58.850006" xlink:href="#AnthropicSansText-Regular-6c"></use>
     <use x="84.050003" xlink:href="#AnthropicSansText-Regular-6f"></use>
     <use x="142.300003" xlink:href="#AnthropicSansText-Regular-70"></use>
     <use x="204.300018" xlink:href="#AnthropicSansText-Regular-65"></use>
     <use x="262.200027" xlink:href="#AnthropicSansText-Regular-20"></use>
     <use x="283.400024" xlink:href="#AnthropicSansText-Regular-3d"></use>
     <use x="347.40004" xlink:href="#AnthropicSansText-Regular-20"></use>
     <use x="368.600037" xlink:href="#AnthropicSansText-Regular-38"></use>
     <use x="424.65004" xlink:href="#AnthropicSansText-Regular-2e"></use>
     <use x="448.250046" xlink:href="#AnthropicSansText-Regular-30"></use>
     <use x="508.650055" xlink:href="#AnthropicSansText-Regular-39"></use>
    </g>
   </g>
   <g id="text_20">
    
    <g transform="translate(154.810937 17.7) scale(0.14 -0.14)">
     <defs>
      <path transform="scale(0.015625)" d="M 307 2378 
L 307 1872 
L 1997 1872 
L 1997 2378 
L 307 2378 
z" id="AnthropicSansText-Regular-2d"></path>
      <path transform="scale(0.015625)" d="M 2883 1728 
C 2883 957 2483 445 1882 445 
C 1277 445 877 957 877 1728 
C 877 2499 1277 3011 1882 3011 
C 2483 3011 2883 2499 2883 1728 
z
M 282 1728 
C 282 691 902 -70 1744 -70 
C 2227 -70 2637 205 2883 643 
L 2883 -1536 
L 3462 -1536 
L 3462 3456 
L 2970 3456 
L 2970 2637 
C 2736 3181 2288 3526 1744 3526 
C 902 3526 282 2765 282 1728 
z" id="AnthropicSansText-Regular-71"></path>
     </defs>
     <use xlink:href="#AnthropicSansText-Regular-41"></use>
     <use x="73.650009" xlink:href="#AnthropicSansText-Regular-49"></use>
     <use x="100.900009" xlink:href="#AnthropicSansText-Regular-2d"></use>
     <use x="136.900009" xlink:href="#AnthropicSansText-Regular-69"></use>
     <use x="162.100006" xlink:href="#AnthropicSansText-Regular-6e"></use>
     <use x="221.800018" xlink:href="#AnthropicSansText-Regular-66"></use>
     <use x="263.650024" xlink:href="#AnthropicSansText-Regular-65"></use>
     <use x="321.550034" xlink:href="#AnthropicSansText-Regular-72"></use>
     <use x="361.800034" xlink:href="#AnthropicSansText-Regular-72"></use>
     <use x="402.050034" xlink:href="#AnthropicSansText-Regular-65"></use>
     <use x="459.950043" xlink:href="#AnthropicSansText-Regular-64"></use>
     <use x="521.950058" xlink:href="#AnthropicSansText-Regular-20"></use>
     <use x="543.150055" xlink:href="#AnthropicSansText-Regular-65"></use>
     <use x="601.050064" xlink:href="#AnthropicSansText-Regular-64"></use>
     <use x="663.050079" xlink:href="#AnthropicSansText-Regular-75"></use>
     <use x="722.150085" xlink:href="#AnthropicSansText-Regular-63"></use>
     <use x="777.350098" xlink:href="#AnthropicSansText-Regular-61"></use>
     <use x="832.000107" xlink:href="#AnthropicSansText-Regular-74"></use>
     <use x="873.850113" xlink:href="#AnthropicSansText-Regular-69"></use>
     <use x="899.05011" xlink:href="#AnthropicSansText-Regular-6f"></use>
     <use x="957.30011" xlink:href="#AnthropicSansText-Regular-6e"></use>
     <use x="1017.000122" xlink:href="#AnthropicSansText-Regular-20"></use>
     <use x="1038.200119" xlink:href="#AnthropicSansText-Regular-72"></use>
     <use x="1078.450119" xlink:href="#AnthropicSansText-Regular-65"></use>
     <use x="1136.350128" xlink:href="#AnthropicSansText-Regular-71"></use>
     <use x="1198.350143" xlink:href="#AnthropicSansText-Regular-75"></use>
     <use x="1257.45015" xlink:href="#AnthropicSansText-Regular-69"></use>
     <use x="1282.650146" xlink:href="#AnthropicSansText-Regular-72"></use>
     <use x="1322.900146" xlink:href="#AnthropicSansText-Regular-65"></use>
     <use x="1380.800156" xlink:href="#AnthropicSansText-Regular-6d"></use>
     <use x="1467.900177" xlink:href="#AnthropicSansText-Regular-65"></use>
     <use x="1525.800186" xlink:href="#AnthropicSansText-Regular-6e"></use>
     <use x="1585.500198" xlink:href="#AnthropicSansText-Regular-74"></use>
     <use x="1627.350204" xlink:href="#AnthropicSansText-Regular-73"></use>
     <use x="1678.700211" xlink:href="#AnthropicSansText-Regular-20"></use>
     <use x="1699.900208" xlink:href="#AnthropicSansText-Regular-76"></use>
     <use x="1756.200211" xlink:href="#AnthropicSansText-Regular-73"></use>
     <use x="1807.550217" xlink:href="#AnthropicSansText-Regular-20"></use>
     <use x="1828.750214" xlink:href="#AnthropicSansText-Regular-61"></use>
     <use x="1883.400223" xlink:href="#AnthropicSansText-Regular-63"></use>
     <use x="1938.600235" xlink:href="#AnthropicSansText-Regular-74"></use>
     <use x="1980.450241" xlink:href="#AnthropicSansText-Regular-75"></use>
     <use x="2039.550247" xlink:href="#AnthropicSansText-Regular-61"></use>
     <use x="2094.200256" xlink:href="#AnthropicSansText-Regular-6c"></use>
     <use x="2119.400253" xlink:href="#AnthropicSansText-Regular-20"></use>
     <use x="2140.60025" xlink:href="#AnthropicSansText-Regular-77"></use>
     <use x="2222.900269" xlink:href="#AnthropicSansText-Regular-6f"></use>
     <use x="2281.150269" xlink:href="#AnthropicSansText-Regular-72"></use>
     <use x="2321.400269" xlink:href="#AnthropicSansText-Regular-6b"></use>
     <use x="2378.050278" xlink:href="#AnthropicSansText-Regular-66"></use>
     <use x="2419.900284" xlink:href="#AnthropicSansText-Regular-6f"></use>
     <use x="2478.150284" xlink:href="#AnthropicSansText-Regular-72"></use>
     <use x="2518.400284" xlink:href="#AnthropicSansText-Regular-63"></use>
     <use x="2573.600296" xlink:href="#AnthropicSansText-Regular-65"></use>
     <use x="2631.500305" xlink:href="#AnthropicSansText-Regular-20"></use>
     <use x="2652.700302" xlink:href="#AnthropicSansText-Regular-65"></use>
     <use x="2710.600311" xlink:href="#AnthropicSansText-Regular-64"></use>
     <use x="2772.600327" xlink:href="#AnthropicSansText-Regular-75"></use>
     <use x="2831.700333" xlink:href="#AnthropicSansText-Regular-63"></use>
     <use x="2886.900345" xlink:href="#AnthropicSansText-Regular-61"></use>
     <use x="2941.550354" xlink:href="#AnthropicSansText-Regular-74"></use>
     <use x="2983.40036" xlink:href="#AnthropicSansText-Regular-69"></use>
     <use x="3008.600357" xlink:href="#AnthropicSansText-Regular-6f"></use>
     <use x="3066.850357" xlink:href="#AnthropicSansText-Regular-6e"></use>
    </g>
   </g>
  </g>
 </g>
 <defs>
  <clipPath id="p2f93f85652">
   <rect height="505.24" width="663.46" y="23.7" x="41.943594"></rect>
  </clipPath>
 </defs>
</svg>
